<svg version="1.1" xmlns="http://www.w3.org/2000/svg" viewBox="0 0 808.25 617.2177137539788" width="2424.75" height="1851.6531412619365">
  <!-- svg-source:excalidraw -->
  
  <defs>
    <style class="style-fonts">
      @font-face {
        font-family: "Virgil";
        src: url("https://excalidraw.com/Virgil.woff2");
      }
      @font-face {
        font-family: "Cascadia";
        src: url("https://excalidraw.com/Cascadia.woff2");
      }
    </style>
  </defs>
  <g transform="translate(330.69914188229467 16.19999999999999) rotate(0 64.45312500000003 228)"><text x="0" y="0" font-family="Cascadia, Segoe UI Emoji" font-size="20px" fill="#364fc7" text-anchor="start" style="white-space: pre;" direction="ltr" dominant-baseline="text-before-edge">State</text><text x="0" y="24" font-family="Cascadia, Segoe UI Emoji" font-size="20px" fill="#364fc7" text-anchor="start" style="white-space: pre;" direction="ltr" dominant-baseline="text-before-edge"></text><text x="0" y="48" font-family="Cascadia, Segoe UI Emoji" font-size="20px" fill="#364fc7" text-anchor="start" style="white-space: pre;" direction="ltr" dominant-baseline="text-before-edge"></text><text x="0" y="72" font-family="Cascadia, Segoe UI Emoji" font-size="20px" fill="#364fc7" text-anchor="start" style="white-space: pre;" direction="ltr" dominant-baseline="text-before-edge">Context</text><text x="0" y="96" font-family="Cascadia, Segoe UI Emoji" font-size="20px" fill="#364fc7" text-anchor="start" style="white-space: pre;" direction="ltr" dominant-baseline="text-before-edge"></text><text x="0" y="120" font-family="Cascadia, Segoe UI Emoji" font-size="20px" fill="#364fc7" text-anchor="start" style="white-space: pre;" direction="ltr" dominant-baseline="text-before-edge"></text><text x="0" y="144" font-family="Cascadia, Segoe UI Emoji" font-size="20px" fill="#364fc7" text-anchor="start" style="white-space: pre;" direction="ltr" dominant-baseline="text-before-edge">Ref</text><text x="0" y="168" font-family="Cascadia, Segoe UI Emoji" font-size="20px" fill="#364fc7" text-anchor="start" style="white-space: pre;" direction="ltr" dominant-baseline="text-before-edge"></text><text x="0" y="192" font-family="Cascadia, Segoe UI Emoji" font-size="20px" fill="#364fc7" text-anchor="start" style="white-space: pre;" direction="ltr" dominant-baseline="text-before-edge"></text><text x="0" y="216" font-family="Cascadia, Segoe UI Emoji" font-size="20px" fill="#364fc7" text-anchor="start" style="white-space: pre;" direction="ltr" dominant-baseline="text-before-edge">Effect</text><text x="0" y="240" font-family="Cascadia, Segoe UI Emoji" font-size="20px" fill="#364fc7" text-anchor="start" style="white-space: pre;" direction="ltr" dominant-baseline="text-before-edge"></text><text x="0" y="264" font-family="Cascadia, Segoe UI Emoji" font-size="20px" fill="#364fc7" text-anchor="start" style="white-space: pre;" direction="ltr" dominant-baseline="text-before-edge"></text><text x="0" y="288" font-family="Cascadia, Segoe UI Emoji" font-size="20px" fill="#364fc7" text-anchor="start" style="white-space: pre;" direction="ltr" dominant-baseline="text-before-edge"></text><text x="0" y="312" font-family="Cascadia, Segoe UI Emoji" font-size="20px" fill="#364fc7" text-anchor="start" style="white-space: pre;" direction="ltr" dominant-baseline="text-before-edge">Performance</text><text x="0" y="336" font-family="Cascadia, Segoe UI Emoji" font-size="20px" fill="#364fc7" text-anchor="start" style="white-space: pre;" direction="ltr" dominant-baseline="text-before-edge"></text><text x="0" y="360" font-family="Cascadia, Segoe UI Emoji" font-size="20px" fill="#364fc7" text-anchor="start" style="white-space: pre;" direction="ltr" dominant-baseline="text-before-edge"></text><text x="0" y="384" font-family="Cascadia, Segoe UI Emoji" font-size="20px" fill="#364fc7" text-anchor="start" style="white-space: pre;" direction="ltr" dominant-baseline="text-before-edge"></text><text x="0" y="408" font-family="Cascadia, Segoe UI Emoji" font-size="20px" fill="#364fc7" text-anchor="start" style="white-space: pre;" direction="ltr" dominant-baseline="text-before-edge"></text><text x="0" y="432" font-family="Cascadia, Segoe UI Emoji" font-size="20px" fill="#364fc7" text-anchor="start" style="white-space: pre;" direction="ltr" dominant-baseline="text-before-edge">Other</text></g><g transform="translate(592 10) rotate(0 56.25 19.19999999999999)"><text x="0" y="0" font-family="Cascadia, Segoe UI Emoji" font-size="16px" fill="#364fc7" text-anchor="start" style="white-space: pre;" direction="ltr" dominant-baseline="text-before-edge">useState()</text><text x="0" y="19.2" font-family="Cascadia, Segoe UI Emoji" font-size="16px" fill="#364fc7" text-anchor="start" style="white-space: pre;" direction="ltr" dominant-baseline="text-before-edge">useReducer()</text></g><g transform="translate(592 90.80000000000001) rotate(0 56.25 9.599999999999994)"><text x="0" y="0" font-family="Cascadia, Segoe UI Emoji" font-size="16px" fill="#364fc7" text-anchor="start" style="white-space: pre;" direction="ltr" dominant-baseline="text-before-edge">useContext()</text></g><g transform="translate(592 146.40000000000003) rotate(0 98.4375 19.19999999999999)"><text x="0" y="0" font-family="Cascadia, Segoe UI Emoji" font-size="16px" fill="#364fc7" text-anchor="start" style="white-space: pre;" direction="ltr" dominant-baseline="text-before-edge">useRef()</text><text x="0" y="19.2" font-family="Cascadia, Segoe UI Emoji" font-size="16px" fill="#364fc7" text-anchor="start" style="white-space: pre;" direction="ltr" dominant-baseline="text-before-edge">useImperativeHandle()</text></g><g transform="translate(592 213.2) rotate(0 93.75 28.80000000000001)"><text x="0" y="0" font-family="Cascadia, Segoe UI Emoji" font-size="16px" fill="#364fc7" text-anchor="start" style="white-space: pre;" direction="ltr" dominant-baseline="text-before-edge">useEffect()</text><text x="0" y="19.2" font-family="Cascadia, Segoe UI Emoji" font-size="16px" fill="#364fc7" text-anchor="start" style="white-space: pre;" direction="ltr" dominant-baseline="text-before-edge">useLayoutEffect()</text><text x="0" y="38.4" font-family="Cascadia, Segoe UI Emoji" font-size="16px" fill="#364fc7" text-anchor="start" style="white-space: pre;" direction="ltr" dominant-baseline="text-before-edge">useInsertionEffect()</text></g><g transform="translate(592 313.2) rotate(0 84.375 38.39999999999998)"><text x="0" y="0" font-family="Cascadia, Segoe UI Emoji" font-size="16px" fill="#364fc7" text-anchor="start" style="white-space: pre;" direction="ltr" dominant-baseline="text-before-edge">useMemo()</text><text x="0" y="19.2" font-family="Cascadia, Segoe UI Emoji" font-size="16px" fill="#364fc7" text-anchor="start" style="white-space: pre;" direction="ltr" dominant-baseline="text-before-edge">useCallback()</text><text x="0" y="38.4" font-family="Cascadia, Segoe UI Emoji" font-size="16px" fill="#364fc7" text-anchor="start" style="white-space: pre;" direction="ltr" dominant-baseline="text-before-edge">useTransition()</text><text x="0" y="57.599999999999994" font-family="Cascadia, Segoe UI Emoji" font-size="16px" fill="#364fc7" text-anchor="start" style="white-space: pre;" direction="ltr" dominant-baseline="text-before-edge">useDeferredValue()</text></g><g transform="translate(592 432.3999999999999) rotate(0 103.125 28.80000000000001)"><text x="0" y="0" font-family="Cascadia, Segoe UI Emoji" font-size="16px" fill="#364fc7" text-anchor="start" style="white-space: pre;" direction="ltr" dominant-baseline="text-before-edge">useDebugValue()</text><text x="0" y="19.2" font-family="Cascadia, Segoe UI Emoji" font-size="16px" fill="#364fc7" text-anchor="start" style="white-space: pre;" direction="ltr" dominant-baseline="text-before-edge">useId()</text><text x="0" y="38.4" font-family="Cascadia, Segoe UI Emoji" font-size="16px" fill="#364fc7" text-anchor="start" style="white-space: pre;" direction="ltr" dominant-baseline="text-before-edge">useSyncExternalStore()</text></g><g stroke-linecap="round"><g transform="translate(405 32.19999999999999) rotate(0 90.374530987367 -9.01719043669081)"><path d="M0.76 0.98 C24.55 1.13, 113.23 4.22, 143.28 0.66 C173.33 -2.91, 175.13 -16.77, 181.06 -20.4 M-0.31 0.45 C23.3 0.27, 112.28 2.17, 142.48 -1.12 C172.67 -4.41, 174.85 -16.05, 180.84 -19.29" stroke="#364fc7" stroke-width="1" fill="none"></path></g></g><mask></mask><g stroke-linecap="round"><g transform="translate(408 33.19999999999999) rotate(0 87.91700505428014 5.5722862553136565)"><path d="M-1.17 -0.16 C20.82 0.15, 103.29 -0.93, 132.98 1.1 C162.68 3.14, 169.49 10.1, 177 12.06 M0.42 -1.29 C22.68 -1.23, 105.86 -2.8, 135.16 -0.44 C164.46 1.93, 169.56 10.5, 176.24 12.89" stroke="#364fc7" stroke-width="1" fill="none"></path></g></g><mask></mask><g stroke-linecap="round"><g transform="translate(412.6144247916825 171.87828803179724) rotate(0 86.77427394544168 -8.733765003593305)"><path d="M-0.72 0.44 C22.63 0.43, 110.08 4.47, 139.24 1.08 C168.41 -2.31, 168.31 -16.61, 174.27 -19.91 M1.1 -0.38 C24.39 -0.19, 109.78 2.61, 138.46 -0.47 C167.14 -3.55, 167.04 -15.44, 173.18 -18.84" stroke="#364fc7" stroke-width="1" fill="none"></path></g></g><mask></mask><g stroke-linecap="round"><g transform="translate(390 171.84983188399218) rotate(0 100.31599491886811 6.1259036583209365)"><path d="M0.31 1.08 C26.95 0.93, 125.55 -2.52, 159.11 -0.47 C192.66 1.57, 194.61 11.29, 201.62 13.37 M-0.98 0.61 C26.11 0.58, 127.85 -0.99, 161.5 0.81 C195.15 2.62, 194.29 9.42, 200.92 11.42" stroke="#364fc7" stroke-width="1" fill="none"></path></g></g><mask></mask><g stroke-linecap="round"><g transform="translate(413.59904179403884 247.86793983326112) rotate(0 86.78222371147672 -8.523982559612762)"><path d="M-0.93 -0.79 C22.28 -0.73, 108.99 2.71, 138.23 -0.2 C167.47 -3.11, 168.47 -15.13, 174.49 -18.26 M0.79 1.41 C24.48 1.71, 111.79 4.8, 140.58 1.23 C169.37 -2.33, 167.91 -16.84, 173.53 -19.98" stroke="#364fc7" stroke-width="1" fill="none"></path></g></g><mask></mask><g stroke-linecap="round"><g transform="translate(416.5134004014433 248.83939270239597) rotate(0 85.3671555542245 5.762006737057277)"><path d="M-0.69 -0.2 C21.1 0.13, 101.12 -1.04, 129.8 1.17 C158.49 3.39, 164.51 11.08, 171.42 13.1 M1.15 -1.35 C22.83 -1.26, 100.46 -2.39, 128.66 -0.33 C156.87 1.73, 163.29 9.1, 170.38 11.01" stroke="#364fc7" stroke-width="1" fill="none"></path></g></g><mask></mask><g stroke-linecap="round"><g transform="translate(478.21777628852317 342.15335418130695) rotate(0 52.65440430733099 -9.059136879776474)"><path d="M0.81 0.77 C12.35 0.48, 52.11 2.16, 69.56 -1.18 C87.02 -4.51, 99.34 -16.25, 105.54 -19.24 M-0.23 0.13 C11.11 -0.11, 50.96 2.74, 68.43 -0.26 C85.9 -3.25, 98.1 -14.89, 104.6 -17.83" stroke="#364fc7" stroke-width="1" fill="none"></path></g></g><mask></mask><g stroke-linecap="round"><g transform="translate(475.13213489592783 342.1248070504417) rotate(0 54.229126837183514 18.46008524704638)"><path d="M-0.35 -1.18 C10.65 -1.11, 48.65 -5.33, 66.85 1.19 C85.04 7.7, 102.06 31.77, 108.81 37.91 M1.66 0.82 C12.41 1.04, 47.92 -3.6, 65.73 2.82 C83.54 9.25, 101.57 33.3, 108.5 39.38" stroke="#364fc7" stroke-width="1" fill="none"></path></g></g><mask></mask><g stroke-linecap="round"><g transform="translate(409.21777628852317 457.15335418130695) rotate(0 87.40467405350603 -9.09358339349842)"><path d="M-0.52 0.96 C22.72 1.05, 110.55 4.09, 139.85 0.83 C169.16 -2.43, 169.61 -15.42, 175.33 -18.61 M1.41 0.42 C24.53 0.15, 110.5 2.63, 139.39 -0.86 C168.29 -4.35, 169.04 -17.29, 174.8 -20.52" stroke="#364fc7" stroke-width="1" fill="none"></path></g></g><mask></mask><g stroke-linecap="round"><g transform="translate(412.13213489592783 458.1248070504417) rotate(0 86.84818086870456 11.188466282748777)"><path d="M0.93 0.83 C22.79 0.8, 102.26 -3.17, 130.64 0.82 C159.02 4.81, 164.41 20.9, 171.22 24.77 M-0.03 0.22 C21.75 -0.23, 100.97 -4.67, 129.93 -0.87 C158.89 2.93, 166.8 18.66, 173.73 23.03" stroke="#364fc7" stroke-width="1" fill="none"></path></g></g><mask></mask><g stroke-linecap="round"><g transform="translate(430 101.19999999999999) rotate(0 76.90210120268165 0.09019694603045991)"><path d="M-0.64 0.39 C25.16 0.34, 128.85 -0.44, 154.44 -0.54 M1.23 -0.45 C26.94 -0.33, 128.05 0.47, 153.73 0.72" stroke="#364fc7" stroke-width="1" fill="none"></path></g></g><mask></mask><g transform="translate(10 249.8) rotate(0 29.296875 12)"><text x="0" y="0" font-family="Cascadia, Segoe UI Emoji" font-size="20px" fill="#364fc7" text-anchor="start" style="white-space: pre;" direction="ltr" dominant-baseline="text-before-edge">Hooks</text></g><g stroke-linecap="round"><g transform="translate(317.0821767863458 34.19999999999999) rotate(0 -119.10604908100395 113.95573548654923)"><path d="M0.54 0.75 C-9.29 34.49, -18.86 164.24, -58.56 201.67 C-98.26 239.1, -207.97 221.53, -237.67 225.31 M-0.64 0.1 C-10.71 34.07, -20.08 165.25, -59.76 203.04 C-99.45 240.82, -209.31 223.12, -238.75 226.8" stroke="#364fc7" stroke-width="1" fill="none"></path></g></g><mask></mask><g stroke-linecap="round"><g transform="translate(76 261.2) rotate(0 116.72216687371521 167.9246277184481)"><path d="M-0.08 0.7 C30.15 7.19, 143.23 -17.09, 182.41 38.82 C221.59 94.73, 226.62 286.83, 235.02 336.17 M-1.58 0.02 C28.96 6.19, 145.4 -18.57, 184.81 37.13 C224.22 92.83, 226.92 284.45, 234.88 334.2" stroke="#364fc7" stroke-width="1" fill="none"></path></g></g><mask></mask><g transform="translate(330.69914188229467 583.2177137539788) rotate(0 82.03125000000003 12)"><text x="0" y="0" font-family="Cascadia, Segoe UI Emoji" font-size="20px" fill="#343a40" text-anchor="start" style="white-space: pre;" direction="ltr" dominant-baseline="text-before-edge">Your own Hooks</text></g></svg>